<svg xmlns="http://www.w3.org/2000/svg" viewBox="0 0 512 512">
  <defs>
    <linearGradient id="bg" x1="0%" y1="0%" x2="100%" y2="100%">
      <stop offset="0%" style="stop-color:#D35400"/>
      <stop offset="100%" style="stop-color:#E67E22"/>
    </linearGradient>
    <linearGradient id="bot" x1="0%" y1="0%" x2="100%" y2="100%">
      <stop offset="0%" style="stop-color:#FFFFFF"/>
      <stop offset="100%" style="stop-color:#F0E6D0"/>
    </linearGradient>
    <filter id="glow">
      <feGaussianBlur stdDeviation="8" result="blur"/>
      <feMerge>
        <feMergeNode in="blur"/>
        <feMergeNode in="SourceGraphic"/>
      </feMerge>
    </filter>
  </defs>
  <rect width="512" height="512" rx="108" fill="url(#bg)"/>
  <circle cx="256" cy="220" r="100" fill="url(#bot)" opacity="0.95"/>
  <rect x="186" y="190" width="36" height="36" rx="8" fill="#D35400"/>
  <rect x="290" y="190" width="36" height="36" rx="8" fill="#D35400"/>
  <path d="M 210 250 Q 256 285 302 250" stroke="#D35400" stroke-width="10" fill="none" stroke-linecap="round"/>
  <rect x="240" y="130" width="32" height="40" rx="16" fill="url(#bot)" opacity="0.9"/>
  <circle cx="256" cy="120" r="14" fill="#FFFFFF" filter="url(#glow)"/>
  <rect x="148" y="340" width="216" height="60" rx="30" fill="url(#bot)" opacity="0.9"/>
  <text x="256" y="382" font-family="Arial,sans-serif" font-weight="900" font-size="32" fill="#D35400" text-anchor="middle" letter-spacing="3">AI AGENT</text>
  <circle cx="160" cy="220" r="16" fill="url(#bot)" opacity="0.7"/>
  <circle cx="352" cy="220" r="16" fill="url(#bot)" opacity="0.7"/>
  <line x1="145" y1="220" x2="156" y2="220" stroke="url(#bot)" stroke-width="4" opacity="0.5"/>
  <line x1="356" y1="220" x2="367" y2="220" stroke="url(#bot)" stroke-width="4" opacity="0.5"/>
  <circle cx="170" cy="420" r="6" fill="#FFFFFF" opacity="0.3"/>
  <circle cx="340" cy="420" r="4" fill="#FFFFFF" opacity="0.2"/>
  <circle cx="130" cy="160" r="5" fill="#FFFFFF" opacity="0.25"/>
  <circle cx="380" cy="150" r="4" fill="#FFFFFF" opacity="0.2"/>
</svg>
